<svg width="18" height="18" viewBox="0 0 18 18" fill="none" xmlns="http://www.w3.org/2000/svg">
<g id="Frame">
<path id="Vector" d="M8.99984 1C7.09994 0.999577 5.26191 1.67533 3.81473 2.90631C2.36755 4.13729 1.40571 5.84313 1.10137 7.7185C0.797031 9.59386 1.17006 11.5163 2.15368 13.1418C3.1373 14.7672 4.66731 15.9896 6.46984 16.59C6.86984 16.66 7.01984 16.42 7.01984 16.21L7.00984 14.72C4.99984 15.09 4.47984 14.23 4.31984 13.78C4.22984 13.55 3.83984 12.84 3.49984 12.65C3.21984 12.5 2.81984 12.13 3.48984 12.12C4.11984 12.11 4.56984 12.7 4.71984 12.94C5.43984 14.15 6.58984 13.81 7.04984 13.6C7.11984 13.08 7.32984 12.73 7.55984 12.53C5.77984 12.33 3.91984 11.64 3.91984 8.58C3.91984 7.71 4.22984 6.99 4.73984 6.43C4.65984 6.23 4.37984 5.41 4.81984 4.31C4.81984 4.31 5.48984 4.1 7.01984 5.13C8.32804 4.76383 9.71165 4.76383 11.0198 5.13C12.5498 4.09 13.2198 4.31 13.2198 4.31C13.6598 5.41 13.3798 6.23 13.2998 6.43C13.8098 6.99 14.1198 7.7 14.1198 8.58C14.1198 11.65 12.2498 12.33 10.4698 12.53C10.7598 12.78 11.0098 13.26 11.0098 14.01L10.9998 16.21C10.9998 16.42 11.1498 16.67 11.5498 16.59C13.3418 15.978 14.859 14.7509 15.8321 13.1266C16.8053 11.5022 17.1716 9.58565 16.8659 7.71692C16.5603 5.84819 15.6024 4.14817 14.1624 2.91854C12.7224 1.68891 10.8934 1.00919 8.99984 1Z" fill="white"/>
</g>
</svg>
