<?xml version="1.0" standalone="no"?>
<!DOCTYPE svg PUBLIC "-//W3C//DTD SVG 20010904//EN"
 "http://www.w3.org/TR/2001/REC-SVG-20010904/DTD/svg10.dtd">
<svg version="1.0" xmlns="http://www.w3.org/2000/svg"
 width="75.000000pt" height="87.000000pt" viewBox="0 0 75.000000 87.000000"
 preserveAspectRatio="xMidYMid meet">

<g transform="translate(0.000000,87.000000) scale(0.100000,-0.100000)"
fill="#000000" stroke="none">
<path d="M270 519 c-129 -187 -240 -352 -247 -367 -7 -15 -12 -51 -13 -79 0
-63 8 -65 85 -29 48 22 60 37 287 364 130 187 239 350 243 361 5 16 -4 27 -42
55 -26 20 -55 35 -63 35 -8 0 -119 -151 -250 -340z m293 278 c26 -21 27 -23
12 -45 l-16 -22 -30 20 c-31 23 -36 39 -17 58 16 16 19 15 51 -11z m-37 -102
c-3 -9 -220 -324 -353 -512 l-43 -62 -30 17 c-16 9 -30 21 -30 25 0 4 90 138
201 298 l201 289 28 -22 c16 -13 27 -28 26 -33z m-446 -615 c-27 -17 -37 -11
-32 21 l5 31 21 -21 c18 -19 19 -23 6 -31z"/>
<path d="M677 69 c-22 -11 -67 -26 -102 -34 -54 -11 -75 -11 -142 2 -163 32
-293 27 -293 -12 0 -18 13 -19 77 -5 37 8 67 7 128 -5 94 -18 252 -20 292 -4
75 30 113 52 113 65 0 19 -28 17 -73 -7z"/>
</g>
</svg>
